<svg width="1201" height="712" fill="none" xmlns="http://www.w3.org/2000/svg"><path d="M449.801 595.2c.296-.154.572-.306.833-.453a1.79 1.79 0 0 1-.327-.438c-.159.291-.325.583-.512.877l.006.014Zm-51.494-211.582c-.061.125-.13.229-.195.344.749-.274 1.5-.545 2.251-.819-.063.008-.124.021-.187.028-.651.074-1.687.076-1.869.447Z" fill="#FEFEFE"/><path d="M656.042 536.338c5.992-1.784 6.34-7.2 8.131-11.636.962-2.383 1.551-3.649 4.583-2.635 3.87 1.294 8.061 1.215 11.566 4.118 1.295 1.073 4.463.876 6.293.1 8.395-3.557 14.974.797 22.039 4.159 5.43 2.585 9.616 7.986 16.349 7.651 4.062-.202 7.961 1.497 12.215.226 3.21-.959 6.476-1.099 7.643 4.221 1.681 7.663 11.956 15.016 19.54 15.204 1.397.035 2.669.048 3.539 1.341.559.832 1.061 1.719 2.319 1.537 9.617-1.383 17.039 4.895 25.521 7.471 1.889.573 2.499 2.769 4.198 3.983 6.836 4.882 14.649 1.97 21.876 3.367 2.927.565 5.076-3.036 7.223-4.968 3.825-3.442 7.626-4.112 12.31-2.436 3.43 1.227 6.266 4.593 10.495 3.15.12-.041.422.086.443.18 1.235 5.485 5.85 3.795 9.382 4.614 7.102 1.646 8.153 8.569 10.913 13.73 1.789 3.345 3.202 6.52 7.407 6.203 12.606-.95 22.486 4.82 31.534 12.644 2.272 1.965 3.648 3.133 6.232-.021 1.963-2.396 4.96-4.626 8.831-3.299 1.034.354 1.964-.112 2.162-1.409.52-3.398 2.098-6.677.107-10.236-1.295-2.314-4.304-4.516-1.321-7.859.756-.846-.388-1.846-1.64-1.331-1.991.82-3.878.501-4.794-1.322-1.164-2.319 1.985-1.652 2.453-2.853 1.1-2.821 2.299-4.876 5.782-5.833 2.858-.787 2.45-4.352-.412-5.901-3.775-2.045-5.204-7.097-10.319-7.62-2.122-.218-4.056-1.28-6.112.164-2.501 1.758-4.588.465-6.163-1.364-1.748-2.03-.249-3.89 1.236-5.236 2.607-2.362 2.161-4.188.686-7.345-2.542-5.439-.043-10.89 1.952-16.282 2.949-7.968 10.58-11.733 15.184-18.204 3.465-4.868 6.685-10.093 11.956-13.459 1.393-.89 2.549-2.411 4.237-2.505 8.29-.459 10.894-5.873 12.708-13.057 1.162-4.602 4.018-8.775 3.613-13.847-.053-.666.319-1.691.001-1.963-6.501-5.544-.51-12.336-1.792-18.454-.904-4.314-4.884-10.003-9.21-10.811h.001c-2.176.862-4.157 1.645-4.919 4.428-.964 3.523-3.271 3.988-5.941 1.413-4.974-4.796-11.416-6.935-17.471-9.756-1.152-.537-2.776-.997-3.848-.594-4.18 1.575-4.18-1.075-3.868-3.735.574-4.906-3.616-9.683-.252-14.739.454-.682-.541-2.547-1.161-3.703-1.182-2.201-2.439-4.306-3.046-6.809-.419-1.727-1.264-3.725-3.685-3.327-1.995.328-2.666 1.624-3.223 3.748-1.04 3.966-5.032 8.205-7.466 8.658-5.62 1.046-7.026 2.587-4.942 7.717.275.677-.04 1.645-.215 2.45-.902 4.16-.359 7.786 1.825 11.738 3.339 6.039.777 10.063-5.761 9.984-3.117-.038-6.229-.801-8.953-2.596-1.599-1.054-2.623-2.646-1.306-4.165 4.841-5.589 1.004-8.581-3.128-11.564-2.59-1.871-5.837-4.784-5.559-7.113.78-6.524-4.753-9.808-6.051-14.977-1.085-4.32-4.409-6.793-7.659-7.634-7.724-1.999-9.952-7.828-10.189-14.16-.181-4.81-1.834-9.078-2.493-13.645-.265-1.842-1.241-3.649-3.336-3.924-1.943-.255-4.632-.671-5.394 1.495-1.535 4.36-4.801 8.028-5.178 12.783-.191 2.413-1.625 3.792-3.019 5.575-2.005-2.054.855-6.143-2.697-6.501-6.827-.689-12.383-5.751-19.509-5.25-4.334.306-8.672-.205-10.478 5.433-.604 1.888-2.517 5.124-5.338 1.284-1.177-1.603-2.87-1.751-4.46-.784-4.936 3.004-8.491 1.392-12.106-2.663-1.69-1.898-4.253-4.559-7.346-3.292-3.561 1.46-6.826.604-10.228.005-7.636.997-11.185 5.734-12.486 13.061-.624 3.515-4.89 4.076-6.916 6.657-1.4 1.783-2.307 3.084-2.403 5.874-.216 6.309-1.151 13.164-8.081 16.284-1.896.854-4.338 1.559-6.316-.902-2.22-2.763-3.954-1.761-4.861 1.301-1.323 4.467-3.253 8.689-3.539 13.541-.26 4.431-4.743 6.428-7.534 9.134-3.687 3.575-4.976 7.222-2.47 11.737 2.015 3.629 3.967 7.281 4.955 11.401.378 1.576.406 2.861-1.175 3.236-4.289 1.018-8.521 3.054-13.024.183-2.156-1.375-4.105-2.28-4.799-5.221-.768-3.262-3.603-4.898-6.851-5.48-3.467-.622-4.67 1.908-6.367 4.278-2.2 3.072-5.382 5.006-9.44 4.823-1.993-.09-3.989-.108-5.983-.168-1.488-.044-2.678.412-2.96 2.046-.265 1.541.331 2.619 1.95 2.958 1.585.331 2.772 1.268 3.404 2.711.631 1.439 1.066 3.314-1.272 3.347-3.308.046-3.745 1.888-2.932 4.284 1.277 3.759-1.098 5.222-3.668 6.642-2.791 1.541-5.463 4.637-8.899 1.396-1.657-1.563-2.436-1.681-4.316.095-3.365 3.179-7.661 4.998-12.164 6.347-6.705 2.009-11.521 6.743-15.237 12.414-1.875 2.86-3.554 4.802-7.149 3.759-2.068-.601-3.893.365-5.749.988-.599.2-1.037.84-1.611 1.17-2.961 1.7-8.203-3.203-9.627 4.588-.653 3.576-2.3 7.952-4.019 11.759 2.786.288 5.585-.216 8.391.63 4.446 1.34 7.974-.367 9.708-4.59 1.285-3.131 4.763-4.141 5.944-7.217.25-.652 1.406-.771 1.616-.094 1.634 5.263 9.063 4.209 10.449 9.874.359 1.467 2.528 2.028 3.891 1.2 4.668-2.836 5.368 1.464 5.409 3.708.069 3.78 2.116 4.878 4.906 5.732 8.692 2.661 17.93 2.262 26.653 4.771.012-2.333-.58-5.423 2.075-6.214Z" fill="#1BABFE"/><path d="M787.041 453.859a.5.5 0 0 1 .918 0l2.966 6.887a3.5 3.5 0 0 0 2.891 2.1l7.467.693a.5.5 0 0 1 .284.873l-5.634 4.949a3.5 3.5 0 0 0-1.104 3.399l1.648 7.315a.5.5 0 0 1-.743.54l-6.447-3.828a3.5 3.5 0 0 0-3.574 0l-6.447 3.828a.5.5 0 0 1-.743-.54l1.648-7.315a3.5 3.5 0 0 0-1.104-3.399l-5.634-4.949a.5.5 0 0 1 .284-.873l7.467-.693a3.5 3.5 0 0 0 2.891-2.1l2.966-6.887Z" fill="#E83636" stroke="#F2994A" stroke-width="3"/><path d="M506.747 581.282c-2.214 1.356-4.754 2.616-7.067 3.583 2.856-.245 5.088-1.637 7.067-3.583Zm-56.968 13.937.028-.015a.15.15 0 0 0-.009-.018l-.019.033Z" fill="#989898"/><path d="M807.045 692.221c-.328 1.974.887 2.203 2.511 2.667-.506-1.675-1.278-2.386-2.511-2.667Z" fill="#E4E4E4"/><path d="M1196.39 454.771c-3.71-2.469-8.46-2.154-11.65-3.821-5.7-2.973-10.61-4.669-16.58-2.234-1.12.459-1.79.232-2.61-.565-3.09-2.974-6.7-4.038-10.94-2.971-2.06.519-3.67.473-4.37-2.449-.68-2.86-6.32-4.797-7.06-2.878-1.89 4.888-7.23 7.226-8.52 12.095-1.02 3.837-3.48 6.328-5.76 9.143-1.58 1.952-4.38 2.188-5.23.735-3.68-6.287-7.61-3.103-11.85-.58-.29-1.014-.48-1.782-.74-2.53-1.9-5.6-5.29-6.602-9.88-2.857-.67.552-1.21 1.059-2.16.896-3.87-.665-7.05 1.158-10.15 3.167-2-5.275-3.73-6.877-6.27-5.193-2.52 1.668-5.79 1.547-7.92 4.071-1.22 1.446-3.18 1.526-5 .366-6.27-4.018-7.94-3.984-13.73.108-3.13 2.216-13.32 1.354-14.06-1.966-.87-3.886-3.4-6.291-5.1-9.319-2.65-4.737-6.58-10.456-12.12-9.358-8.88 1.76-11.92-5.728-17.43-8.981-2.94-1.738-4.47-4.399-8.382-2.077-2.643 1.569-9.7-2.403-9.178-4.824 1.041-4.832-1.187-7.595-5.312-9.126-5.285-1.96-10.463-.739-12.944 3.05-1.87 2.856-2.592 2.964-3.994-.475-1.155-2.836-4.001-4.503-7.322-3.928-3.261.564-3.222 3.255-3.364 5.87-.069 1.252.429 2.855-.83 3.771-4.858 3.533-4.482 9.329-6.201 14.217 8.828 5.694 11.385 12.377 8.883 23.567-.477 2.135-.871 3.398 1.354 5.436 2.597 2.379 1.801 7.002.987 10.219-1.161 4.589-2.886 9.224-4.733 13.51-1.977 4.588-4.108 10.248-11.648 10.195-4.916-.034-9.081 4.594-11.564 8.451-4.292 6.669-9.445 12.156-15.455 17.108-5.511 4.541-8.292 17.056-5.307 23.444 1.498 3.207 1.177 5.659-1.738 7.805-.837.616-2.099 1.57-1.238 2.902.86 1.33 2.094 1.04 3.525.539 5.382-1.886 12.496.927 16.019 6.071.351.511 1.007.861 1.589 1.152 2.051 1.027 5.403 2.195 4.368 4.469-1.191 2.615-.847 6.82-5.473 7.541-2.414.377-3.866 2.402-.232 3.988.441.192 1.151.589 1.142.873-.246 7.67 5.525 15.044 1.154 22.899-.683 1.229-1.782 2.4-3.202 1.899-4.938-1.742-7.388 1.555-9.998 4.665-1.684 2.006-3.274 4.093-5.564 5.504-.673.414-1.342 1.271-.514 2.051.361.339 1.463.451 1.799.162 4.096-3.536 8.563-1.542 12.908-.938 1.851.257 3.368.95 4.036-1.921.727-3.12 3.575-3.282 6.056-2.479 5.27 1.707 10.616 3.423 14.057 8.323.575.817 1.104 2.127 1.851 2.288 4.668 1.009 8.451 2.212 4.566 8.137-.396.603 1.266.564 1.971.807 1.627.563 3.108 2.019 2.126 3.296-2.583 3.358.411 5.9.944 8.623.665 3.4 5.66 4.583 9.814 2.898.572-.231 1.392-1.249 1.429-1.212 3.726 3.655 8.671-1.271 10.238-.14 5.434 3.921 9.597.75 14.255-.484.579-.153 1.35-.086 1.882.179 4.52 2.242 7.76.675 8.89-4.526.34-1.532.45-3.033 2.25-3.506 2.01-.527 2.2 1.695 3.19 2.215 3.69 1.922 6.69 4.733 10.13 6.935 2.35 1.505 3.92 6.669 1.68 7.92-5.31 2.961-3.59 8.04-3.18 11.641.58 5.114-2.06 7.058-5.36 8.714-2.68 1.35-3.89 2.931-3.44 5.839v.001c6.81.609 12.88-.516 16.36-7.744 2.5 4.87 2.31 9.686 3.15 14.268 1.41 7.627 10.05 13.56 17.58 12.71 2.96-.334 7.92-3.118 8.67 3.512.19 1.686 2.03 2.11 3.54 2.305 2.37.305 4.44 1.185 6.5 2.423 3.9 2.345 7.02.762 7.12-3.829.11-4.502 2.83-6.076 6.39-7.109 1.11-.322 2.45-.129 3.39-.681 5.89-3.455 10.58-1.257 15.45 2.488 2.82 2.163 5.28 6.706 9.6 4.752 3.52-1.596 8.1-1.252 10.49-5.373 1.1-1.9 2.47-2.381 4.68-.372 3.73 3.39 7.87 2.466 10.37-1.892 1.51-2.631 2.29-5.564 6.18-2.35 1.8 1.49 4.3.7 5.66-1.444 1.89-2.978 3.3-1.665 4.73.315 2.23 3.072 4.34 6.264 7.99 7.848 1.89.818 3.32 1.877 4.15 3.989 1 2.553 3.41 2.87 5.9 2.664 2.14-.178 3.44-1.049 3.47-3.403.02-1.503 1.2-2.182 2.22-3.1 5.23-4.707 10.6-8.982 7.69-17.88-.67-2.034.19-6.81 1.58-10.285 2.71-6.789 7.64-12.14 9.25-19.97 1.8-8.819 2.78-16.995.35-25.523-.79-2.772 1.27-6.223-1.13-8.229-3.9-3.259-2.34-8.817-5.77-12.128-.75-.72-.56-1.972-.12-2.883 1.44-2.981 1.32-5.058-2.47-5.992-1.1-.272-2.29-1.576-2.79-2.699-1.36-3.096-2.61-5.561-6.88-4.821-1.92.331-2.67-2.222-3.07-4.056-.28-1.29.12-3.337-.61-3.828-4.97-3.383-2.08-7.058-.67-10.681.36-.912.98-1.631.8-2.783-1.34-8.634 2.02-16.333 5.32-23.871 1.33-3.04 1.52-5.297-.3-7.885-2.22-3.171-1.62-6.046 1.48-8.037 2.2-1.406 2.54-2.828 1.46-4.997-2.17-4.37-3.22-7.893-1.54-13.709 2.24-7.789 7.65-13.352 10.22-20.622.97-2.752 2.88-5.231 2.86-8.332-.01-1.913.34-3.649 1.32-5.274 2.56-4.26 6.36-8.164 3.78-13.881-.21-.472.03-1.409.39-1.846 3.45-4.14.8-5.962-2.53-8.182Z" fill="#034DD1"/><path d="M1070.04 641.859a.501.501 0 0 1 .92 0l2.97 6.887a3.483 3.483 0 0 0 2.89 2.1l7.46.693a.5.5 0 0 1 .29.873l-5.64 4.949a3.507 3.507 0 0 0-1.1 3.399l1.65 7.315a.505.505 0 0 1-.75.54l-6.44-3.828a3.507 3.507 0 0 0-3.58 0l-6.44 3.828a.505.505 0 0 1-.75-.54l1.65-7.315a3.507 3.507 0 0 0-1.1-3.399l-5.64-4.949a.5.5 0 0 1 .29-.873l7.46-.693a3.483 3.483 0 0 0 2.89-2.1l2.97-6.887Z" fill="#E83636" stroke="#F2994A" stroke-width="3"/><path d="M564.72 520.041c.133-1.198-.914-2.184-2.811-1.099-4.947 2.827-10.666 1.064-16.009 2.043-2.77.508-2.026-3.498-2.505-5.886-1.317-6.556 5.099-12.538 1.066-19.181-.52-.856-.174-2.318-.051-3.479.258-2.417.906-4.722-3.082-2.774-1.894.925-4.673 1.114-3.438-2.875.8-2.582-1.815-4.151-2.279-6.447-.285-1.407-.256-2.908 1.183-2.303 4.688 1.974 9.097-.367 13.625-.322 1.522.015 2.971.204 4.353.943 1.686.901 3.255 1.83 4.062-1.227.745-2.82 3.674-1.926 5.108-1.442 5.615 1.898 9.995-2.464 15.16-2.521 1.363-.014 1.597-1.556 1.968-2.641.431-1.265.636-2.617 1.147-3.843.878-2.103 3.929-4.63 2.544-6.03-2.131-2.153-5.24-3.977-8.68-4.219-3.259-.228-6.657.661-9.573-1.868-.839-.727-2.28.112-3.227.819-2.971 2.216-6.75 1.762-9.001.225-3.839-2.622-8.119-3.886-12.108-5.93-2.772-1.421-5.062-1.97-7.759.153-2.77 2.179-5.431 2.675-8.096-.808-2.198-2.872-5.621-3.111-9.139-2.419-4.93.971-9.88.989-14.841-.116-1.809-.403-3.362-.948-3.495-2.939-.321-4.811 4.456-6.336 6.514-9.654 1.09-1.755 3.539-1.242 5.023-.143 3.591 2.66 6.533-.18 9.558-1.036 2.7-.763 1.507-2.594-.273-3.296-4.819-1.903-4.226-5.72-3.021-9.23 1.773-5.166.369-7.741-4.947-7.233-7.578.724-14.445-.245-18.88-7.297-2.626-4.175-6.811-5.352-10.757-4.522-7.459 1.571-10.014-4.061-13.621-8.132-3.848-4.344-6.201-5.191-11.049-2.345-1.64.963-2.875.031-4.29.114-2.145.125-2.819-.897-3.608-3.06-1.443-3.951-3.93-6.839-8.418-8.896-5.008-2.294-10.012-5.188-13.724-10.614-2.397-3.504-3.249-8.325-7.247-11.008-1.625-1.091-1.327-3.553-1.147-6.048.281-3.895 1.968-6.273 3.454-9.457 2.679-5.739 1.845-6.19 7.564-3.453.945.453 2.062 1.756 2.938.088.662-1.26-.723-1.563-1.425-2.186-1.82-1.614-3.642-3.593-1.976-6.014 1.665-2.42 3.044-4.911 7.491-4.055 3.779.728 8.174 1.21 12.376-.585 2.675-1.142 4.454-1.899 3.666-5.121-.219-.896.058-1.837.946-2.074 5.25-1.399 3.241-5.173 2.808-8.438-.043-.33-.104-.929-.206-.94-6.109-.648-8.255-8.029-14.682-8.489-4.288-.307-8.345-1.64-12.007-4.67-3.908-3.235-9.204-1.085-13.833-1.404-4.151-.286-8.663.09-12.494 2.722-1.701 1.168-2.531-.741-2.974-1.717-3.093-6.807-10-4.834-15.196-6.617-1.268-.435-2.506 2.361-2.548 3.83-.131 4.591-3.429 6.851-6.229 9.497-1.114 1.053-2.448 1.823-1.846 3.693.56 1.742 1.893.704 2.911.915 2.561.531 4.684 7.904 3.322 10.698-1.47 3.016-4.39 4.371-6.699 6.436-3.188 2.851-5.501.171-8.088-1.088-.859-.418-1.999-.948-2.456.473-.393 1.221.605 1.84 1.525 2.245 2.864 1.264 6.033 1.196 9.005 2.757 1.987 1.042 2.253 1.841 2.336 3.457.11 2.14-.157 4.075-2.773 4.598-4.339.867-7.305 4.138-10.855 6.378-2.462 1.554-4.434 4.205-7.974 2.85-1.53-.586-2.997.374-2.955 1.803.161 5.491-3.835 9.05-6.228 13.16-1.822 3.128-1.063 5.176.452 7.23 1.282 1.74 1.562 3.242.913 5.09-1.839 5.24.457 13.245 5.382 15.773 3.556 1.825 3.154 3.776.992 5.561-2.542 2.099-3.051 4.443-3.098 7.46-.035 2.225-.473 3.917-3.367 1.296-4.238-3.838-9.166-6.902-13.764-10.344-.741-.555-1.653-.97-2.283-.535-3.994 2.759-7.966-.327-11.966-.02-1.615.124-3.185-.306-4.692.718-1.15.781-2.226.909-3.647.017-5.098-3.2-13.35-.47-14.626 5.273-.578 2.599-1.806 4.807-2.443 7.281-.735 2.855-1.756 3.472-3.792.818-3.472-4.525-9.353-6.338-12.623-11.227-.697-1.042-2.641-1.56-4.073-1.708-2.123-.22-3.756-.347-4.23-3.049-.245-1.4-1.788-2.845-3.277-2.767-4.001.207-6.157-2.747-9.155-4.368-4.107-2.219-4.771-4.55-3.084-8.253 1.222-2.683.592-3.704-2.154-5.193-8.52-4.622-15.783-11.158-23.623-16.798-5.868-4.221-10.52-10.359-17.832-12.555-.87-.261-1.864-1.084-2.231-1.904-2.637-5.883-7.7-8.67-13.402-10.228-2.438-.666-3.968-4.529-6.771-2.547-1.917 1.355-3.051 3.876-4.428 5.948-1.778 2.673-4.137 4.759-6.336 7.049-7.129 7.423-14.026 15.087-20.719 22.912-1.846 2.158-.365 5.453-.976 8.165 4.887 1.789 9.979 2.699 15.11 3.264 4.037.444 6.684 3.233 6.418 6.447-.541 6.551 3.848 10.027 6.955 14.421 2.244 3.172 8.446 5.141 3.236 10.625-.073.077-.035.363.051.473 1.689 2.166 1.386 5.759 4.306 6.912 2.714 1.072 9.604-1.811 10.812-4.102 1.381-2.621 4.86-3.063 5.801-.392 1.339 3.802 5.949 6.106 4.803 11.031-.235 1.011.719 2.342 1.873 2.772 10.688 3.982 17.994 14.799 30.435 15.255.597.022 1.314.421 1.744.87 7.177 7.488 15.953 12.887 24.162 19.049 5.244 3.938 9.307 3.463 11.888-2.555 3.687-8.592 13.894-9.871 19.782-2.602 3.004 3.71 5.799 7.572 11.741 7.097 2.508-.2 5.008 2.061 7.291 3.928 5.801 4.744 11.284 9.996 18.043 13.425 2.138 1.085 3.691 2.539 5.231 4.406 3.897 4.724 8.709 9.514 15.075 8.4 7.152-1.252 14.48-1.823 21.492-4.07 8.777-2.813 8.536-2.53 11.971 5.304 2.686 6.127 5.036 12.054 3.425 18.932-.364 1.555-.147 3.276-.529 4.943-.498 2.168.129 4.479 2.71 4.379 4.159-.16 8.35.439 12.35.812 5.827.544 13.463-4.065 17.474 4.386.266.561 1.427.797 2.219.986 6.105 1.453 12.01 3.844 18.604 2.257 3.342-.804 6.979-.428 10.485-.459 1.445-.012 3.174-.261 3.949 1.483 1.526 3.436 4.391 5.358 7.485 7.12 1.498.853 1.956 2.134 2.154 4.074.558 5.456 5.818 8.789 11.259 7.821 5.119-.912 8.442-4.235 10.13-8.717 1.115-2.962 5.26-5.113 2.619-9.437-2.201-3.603-.425-6.233 3.776-6.081 7.501.272 14.998.667 22.494 1.072.972.053 2.026.284 2.87.749 10.532 5.801 21.517 10.767 31.636 17.33 1.349.874 2.541 2.62 4.392 1.593 1.933-1.073 1.537-3.164 1.522-4.992-.024-2.92-.986-6.136 2.546-7.892-.198-3.454-2.482-6.439-2.07-10.118Z" fill="#1E6AF2"/><path d="m430.959 453.859 2.966 6.887a3.5 3.5 0 0 0 2.891 2.1l7.467.693a.5.5 0 0 1 .284.873l-5.634 4.949a3.5 3.5 0 0 0-1.104 3.399l1.648 7.315a.5.5 0 0 1-.743.54l-6.447-3.828a3.496 3.496 0 0 0-3.574 0l-6.447 3.828a.5.5 0 0 1-.743-.54l1.648-7.315a3.5 3.5 0 0 0-1.104-3.399l-5.634-4.949a.5.5 0 0 1 .284-.873l7.467-.693a3.5 3.5 0 0 0 2.891-2.1l2.966-6.887a.5.5 0 0 1 .918 0Z" fill="#E83636" stroke="#F2994A" stroke-width="3"/><path d="M196.453 94.244c1.186 1.007 2.459-.167 3.7-.632 4.609-1.727 11.858 2.266 12.867 7.027.17.801.446 2.065.05 2.425-2.815 2.567-1.414 5.435-1.18 8.419.142 1.801.241 2.678 2.033 3.105 2.12.505 3.576-.571 3.551-2.344-.047-3.443 2.305-3.898 4.56-4.1 6.809-.61 13.259-3.301 20.271-3.068 2.416.08 3.851.374 4.701 2.416 1.422 3.417 3.97 3.765 7.26 3.529 6.686-.481 7.768.73 6.835 7.361-.485 3.451-1.452 6.835-2.234 10.241-.42 1.834-1.527 2.889-3.475 3.008-2.18.133-3.389 1.528-3.528 3.544-.357 5.151-3.056 9.495-4.597 14.232-2.233 6.868 1.745 12.319 8.985 12.224 4.166-.055 7.066 3.084 6.499 8.147-.677 6.055-2.915 11.826-.535 18.184.914 2.44-.668 5.864-1.236 8.816-.5 2.602-2.206 3.541-4.744 3.073-.246.435-.685.859-.709 1.307-.352 6.351-3.894 8.81-9.915 10.189-5.339 1.224-7.932.793-9.353-4.666-.769-2.955-4.205-4.086-7.238-1.952-4.172 2.935-7.863 6.489-11.379 10.211-1.718 1.819-2.771 3.447-.948 6.022.871 1.231.474 3.084-.249 4.795-2.47 5.84-1.079 9.28 4.18 12.231 2.103 1.181 3.299 3.525 5.799 4.522 1.585.632 1.068 2.546-.325 3.702-2.689 2.232-5.278 4.657-8.663 5.779-1.502.497-2.471 1.396-3.563 2.511-8.516 8.707-8.526 11.02-.433 20.213 5.325 6.05 11.072 11.878 13.224 20.089.245.932.774 1.936 1.472 2.573 2.75 2.51 4.595 5.918 2.244 8.837-2.618 3.252-7.167 3.053-11.176 2.484-1.746-.248-1.816-1.759-1.987-3.459-.534-5.285-1.501-10.537-6.563-13.689-1.494-.931-1.532-2.343-1.67-3.919-.432-4.938-3.579-6.636-7.645-4.11-4.268 2.652-8.051 2.912-11.437-1.43-1.407-1.803-2.912-3.413-4.833-.23-1.498 2.483-3.855.673-5.868.811-7.11.489-12.767-2.491-17.342-7.41-2.748-2.955-6.238-2.883-9.465-3.554-2.916-.607-4.067 2.74-3.006 5.667 1.676 4.62 6.611 5.188 9.26 8.466.501.619 1.024.33 1.703-.028 5.619-2.955 5.634-2.927 8.946 3.765 1.133-2.103 1.58-5.321 4.201-4.697 3.423.816 5.316 4.455 6.219 7.126 2.107 6.228 3.853 12.572 6.213 18.756 1.164 3.051.85 6.646 4.603 8.145.275.11.678.519.64.711-1.577 7.919 6.24 6.074 9.476 8.837 2.479 2.115 5.887 3.422 6.901 6.705.932 3.019 3.683 2.414 5.364 3.772 7.725 6.242 15.773 12.057 23.479 18.339 5.253 4.281 10.78 8.481 17.252 10.978 1.647.636 3.377 1.187 2.276 3.485-1.087 2.267-2.916 5.234-1.747 6.944 1.534 2.242 4.657 3.58 7.323 4.804 7.149 3.284 13.465 7.692 19.397 12.861 2.838 2.472 6.273 4.288 9.034 7.062 1.447-1.505 1.973-3.108 2.406-4.962 1.846-7.897 10.593-12.268 17.764-8.645 2.783 1.407 4.34-1.301 7.017-.809 4.195.771 8.463 1.522 13.095.829 4.371-.653 8.216 3.385 11.399 6.553 4.155 4.136 3.182 3.75 6.602-.741 2.901-3.808 1.516-5.399-.709-8.132-1.973-2.425-3.181-5.465-4.965-8.067-.967-1.41-1.484-3.42-.717-4.18 3.74-3.706 1.096-6.833-.426-10.126-.969-2.094-2.194-3.06.824-5.765 2.782-2.493 6.325-6.574 6.333-11.74.005-3.26 1.214-5.985 5.532-4.539 1.469.492 3.147.282 4.23-.889 3.88-4.197 8.93-6.339 13.979-8.596 1.71-.765 1.413-2.106-.329-2.851-2.281-.974-4.281-2.495-6.903-2.831-1.949-.251-4.018-1.399-4.784-3.213-.561-1.329-.276-3.359 1.129-4.564 1.587-1.361 3.171-.26 4.677.318 1.764.677 3.193 3.126 5.319 1.718 2.71-1.795 5.703-3.854 6.546-7.062.629-2.39-.496-5.077-3.31-6.255-4.495-1.882-4.982-4.65-1.26-8 2.715-2.444 4.966-4.896 6.152-8.672 1.041-3.312 1.822-9.466 8.111-4.8 3.502-2.856 5.934 1.292 8.997 1.417 1.177.048 2.434.637 2.755 1.869 1.303 5.002 4.955 2.835 7.405 2.06 7.025-2.223 14.095-1.005 21.022-.408 3.786.325 6.499 4.683 10.835 5.313 5.232.76 10.732 1.413 13.334 7.261.409.92 1.391 1.06 2.157.83 5.154-1.548 9.853 3.153 15.02 1.058 5.409 5.46 11.359-.658 16.962.789.467.12 1.296.224 1.442-.002 3.809-5.876 11.372-3.563 16.08-7.479.723-.601 2.275-.728 1.927-1.895-1.2-4.021.998-7.039 1.907-10.568 1.62-6.289 5.777-10.303 9.513-14.094 6.085-6.174 8.412-13.82 8.505-21.256.056-4.525.768-6.094 4.076-8.086 4.067-2.449 3.779-6.282-.338-9.297-.79-.579-1.591-1.142-2.388-1.713-4.713-.104-6.772-5.755-11.716-5.637-1.113.027-1.155-1.8-1.281-2.99-.521-4.907-4.21-7.455-7.957-9.286-2.605-1.273-3.668-2.465-3.162-5.218.42-2.288.134-4.519-1.999-5.802-1.855-1.117-1.702-2.251-1.26-4.151.817-3.51.002-7.817-3.703-8.088-4.855-.353-6.618-4.495-6.845-6.639-.705-6.678-4.115-7.995-9.737-7.728-2.908.139-3.177-2.139-2.136-4.112 2.498-4.733 1.823-6.641-3.255-7.935-1.239-.315-2.928.459-3.679-.98-3.523-6.766-10.67-5.201-16.238-7.227-.665-.243-1.823-.027-2.363.436-3.91 3.356-6.187-.155-7.946-2.41a22.919 22.919 0 0 0-5.836-5.256c-2.26-1.417-5.15.439-7.702 1.415-.37-5.878-1.993-7.87-6.545-7.615-2.088.117-4.256.455-6.06 1.975-1.723 1.452-4.776 1.662-5.195-.182-.906-3.994-3.254-4.505-6.468-4.635-.979-.039-1.885-.829-2.1-1.92-.78-3.971-3.526-5.746-7.299-6.395 3.875-4.943 1.984-11.247-3.753-13.392-2.571-.96-4.735 2.357-6.498 1.335-1.596-.924-.378-4.912-3.581-5.442-2.526-.418-3.504-2.266-4.559-4.222-1.481-2.744-3.381-5.258-5.084-7.838-1.869-2.832-4.888-5.6-8.591-1.672-.548.58-1.618 1.62-1.914.738-1.539-4.583-7.218-3.482-9.259-7.014-3.301-5.715-10.109-4.885-14.881-8.028-2.072-1.365-6.21-1.536-8.868-3.263-2.519-1.636-4.646-1.997-7.39-.924-3.012 1.177-4.154-.342-3.402-3.249.431-1.669.279-3.336 1.516-5.037 3.145-4.326-.12-11.062-5.516-12.143-2.646-.53-5.708-6.038-5.664-8.786.076-4.807 2.242-9.671-.658-14.472-2.352-3.892-6.144-5.804-9.33-4.399-4.779 2.109-9.581 7.034-14.7.4-.523-.678-1.771-1.184-2.756-.493-3.15 2.208-5.758.582-8.078-1.34-1.937-1.605-3.89-2.051-6.363-2.228-4.387-.314-9.761-.028-12.836-2.435-4.796-3.755-10.363-4.99-15.453-7.58-4.633-2.358-5.869-1.728-7.25 3.287-6.371-2.454-6.979-2.263-8.722 2.731-1.612 4.622-4.711 5.412-8.144 1.675-1.91-2.08-4.176-3.427-6.585-4.369-4.337-1.695-7.762.46-7.807 4.687-.075 7.163.828 14.443-.188 21.453-.723 4.993-.443 10.624-5.87 14.676-3.628 2.708-7.333 1.746-10.791 3.16-1.739.712-3.621.919-4.206 2.992-.518 1.833.344 3.274 1.77 4.38 3.486 2.702 3.406 6.09 1.142 9.253-1.35 1.887-.563 2.188.858 2.742h.001c4.161 2.803 9.546 2.903 13.494 6.257Z" fill="#1BABFE"/><path d="m270.959 313.859 2.966 6.887a3.5 3.5 0 0 0 2.891 2.1l7.467.693a.5.5 0 0 1 .284.873l-5.634 4.949a3.5 3.5 0 0 0-1.104 3.399l1.648 7.315a.5.5 0 0 1-.743.54l-6.447-3.828a3.496 3.496 0 0 0-3.574 0l-6.447 3.828a.5.5 0 0 1-.743-.54l1.648-7.315a3.5 3.5 0 0 0-1.104-3.399l-5.634-4.949a.5.5 0 0 1 .284-.873l7.467-.693a3.5 3.5 0 0 0 2.891-2.1l2.966-6.887a.5.5 0 0 1 .918 0Z" fill="#E83636" stroke="#F2994A" stroke-width="3"/><path d="M155.022 62.83c-.305 1.579-1.238 2.252-1.238 2.252l-36.578-1.852.887-.773 1.775-1.552 2.463-2.152c.742-1.746-.086-4.324-1.424-6.876-2.225-4.27-5.86-8.447-5.86-8.447-6.621-3.332-4.635-7.329-4.635-7.329-5.959-3.331-3.973-6.662-3.973-6.662s-3.973.666-3.311-1.333c.662-1.998-2.648-3.33-2.648-3.33l-4.636-.667-.662-1.332-3.31-.667v-5.996s-3.973-2.665-3.973-6.662S85.25 4.79 85.25 4.79c-1.324.666-4.635.666-4.635.666s-1.325 1.998-3.311 3.33c-1.986 1.333-4.304 1-4.304-.998 0-2 2.649-3.998 2.649-3.998l2.648-.666C79.622.458 82.27.458 82.27.458c2.649-1.332 5.297.666 5.297.666 0 1.333 3.311 3.331 3.311 3.331 3.192-1.285 6.993 4.857 7.27 5.304-.072-.18-.43-1.253 2.001-.64 2.648.666 10.594 10.66 10.594 10.66-.662 1.332 2.649 4.663 2.649 4.663 2.648-.666 3.311 1.999 3.311 1.999 5.204-1.746 5.866 1.592 5.946 2.465.139-.12.708-.193 2.662.2 3.31.666 5.959 3.997 5.959 3.997-.662 1.999.662 2.665.662 2.665 1.987-1.999 9.933-.666 11.919 1.332.937.943 1.726 1.44 2.299 1.704a.895.895 0 0 1 .442 1.18c-.754 1.699-.754 4.445-.754 4.445 3.31 1.999 0 3.331 0 3.331l4.635 4.664c4.383 5.143 4.939 8.46 4.549 10.406Z" fill="#034DD1"/><path d="M258.342 183.661c2.602 4.171-.179 12.512-4.297 14.337a5.326 5.326 0 0 0-1.994 2.192c-.437.86-.688 1.826-.88 2.845-.59 3.111-9.754 7.389-12.396 5.836-.788-.466-1.026-1.206-1.278-2.038-1.841-6.21-4.218-7.702-9.992-5.117-7.376 3.298-11.316 10.626-17.024 15.909-.761.707-.06 1.693.742 1.992 3.516 1.326 2.436 3.412 1.476 6.03-2.006 5.496.643 11.312 5.907 13.931 4.728 2.358 5.045 4.97.417 7.575-5.119 2.878-9.853 5.862-12.959 11.146-2.661 4.53-2.436 7.794.828 12.005 3.503 4.51 6.807 9.114 10.84 13.231 4.694 4.784 4.807 12.425 9.786 17.269.98.952 1.252 3.238-.476 3.924-2.424.959-5.039 1.925-7.774 1.192-.55-.146-.192-.753-.212-1.186-.199-3.437-1.205-6.582-2.695-9.766-1.523-3.252-5.39-4.611-6.092-8.135-1.49-7.548-4.754-9.074-11.806-5.436-1.987 1.019-4.159 2.238-6.377-.094-2.874-3.011-5.721-7.735-9.965-1.372-.133.2-.596.266-.894.24-7.185-.64-14.117-1.359-19.382-7.629-4.29-5.096-15.441-4.703-19.778-.06-1.225 1.306-.55 2.139.741 2.632 2.861 1.099 4.284 3.438 5.794 5.949 2.146 3.578 6.794 4.264 9.383 7.535.53.667 2.092-.013 2.576-.906 2.165-4.037 3.436-3.451 4.688.593.662 2.139 2.834 4.111 4.648 3.958 2.066-.167.808-3.158 1.53-4.75.165-.38.642-.627 1.033-.986 1.317 3.111 4.476 4.723 5.284 8.221.404 1.719-1.344 2.865-.113 4.69 3.702 5.47 4.874 12.032 6.999 18.175.49 1.405.782 3.018-.073 4.397-5.906 9.513-14.448 16.802-21.546 25.31-5.046 6.036-12.032 10.413-13.032 19.154-5.184.573-6.886-2.592-7.23-7.502-2.788 2.372-5.106 2.032-7.238-.327-1.053-1.159-2.436-1.732-3.979-1.938-.662-.087-1.325-.167-1.974-.3-3.105-.633-1.834-5.843-4.734-5.53-3.185.347-5.013-.819-7.423-2.378-4.099-2.632-8.78-4.364-10.76-9.427-.139-.367-1.152-.567-1.748-.56-6.198.107-9.31-3.904-11.197-8.981-1.026-2.758-3-2.778-5.099-3.031-4.45-.533-8.628-1.279-9.237-7.009-.218-2.045-2.086-1.545-3.165-1.232-1.96.566-3.814 1.625-3.185 4.277.88 3.724 1.582 7.522 2.82 11.126.994 2.865.226 5.077-1.78 6.716-2.378 1.932-3.291-.78-4.761-1.966-3.185-2.591-6.357-4.937-7.609-9.327-.602-2.119-3.092-2.498-5.568-1.925-5.708 1.325-12.972-2.952-14.257-8.721-.589-2.665-1.668-3.831-4.105-4.064-1.245-.12-2.47-.5-3.006-1.559-4.112-8.115-14.886-8.042-19.223-15.936-.92-1.673-2.483-1.406-4.211-.12-3.774 2.798-7.529 1.898-9.032-2.692-2.417-7.382-3.807-15.13.53-22.352 2.132-3.557 3.304-7.675 6.476-10.679 1.635-1.539 1.211-4.118 1.264-6.276.173-7.202 3.463-12.752 8.807-17.275 2.278-1.932 4.668-2.445 7.383-.966.676.366 1.497 1.159 2.232.386.834-.873.212-1.805-.239-2.738-3.171-6.529-1.761-10.38 4.649-12.818 2.231-.846 4.065-6.596 2.152-8.934-3.662-4.471-3.55-10.607-7.608-14.997-3.086-3.338-.2-10.493 3.085-13.651 4.205-4.037 10.23-6.816 10.952-13.884.252-2.512 2.88-3.498 4.894-4.704 4.913-2.944 5.045-5.263 2.47-10.466-2.113-4.277-3.318-9.074-4.43-13.758-.742-3.111.264-6.062 3.463-7.628 1.47-.72 2.192-1.786 2.662-3.364 1.45-4.897 5.946-5.943 9.892-6.216 6.615-.467 12.674-4.844 13.8-11.593 1.668-10 3.92-12.258 16.832-11.146 1.662.147 2.734-.073 3.98-1.246 2.37-2.231 4.111-5.343 7.76-5.982.503-.087 1.179-.873 1.265-1.42 1.39-8.78 8.846-12.324 14.62-17.294l.887-.773c.649-.527 1.457-.933 1.775-1.553l2.463-2.151c.742-1.746-.086-4.324-1.423-6.876 1.311-1.752 3.032-3.331 4.059-5.177.827-1.485 2.589-3.044 4.595-2.345 2.145.747 2.669 2.799 2.53 4.99-.04.64.079 1.3.145 2.212 3.801-1.252 7.754-.133 11.277-2.105 1.145-.64 3.059-.793 3.761.346 2.549 4.084 7.8 6.483 7.714 12.192-.007.293.007.573.033.84.146 1.419.735 2.551 1.861 3.584 1.384 1.286 2.907 3.251 1.768 4.844-2.702 3.79.351 5.483 2.238 7.501 2.033 2.179 4.35.933 6.873.547 1.814-.274 3.496-.9 5.172-1.513 1.675-.613 3.337-1.219 5.111-1.472 2.159 2.099 4.841 3.178 7.562 4.164 2.728.986 5.496 1.892 7.853 3.637.643.48 2.305.48 2.874-.013 3.285-2.865 6.145-.273 8.681.94 2.543 1.212 4.582 3.61 1.523 6.748-1.185 1.213-.47 10.114.689 11.233 2.715 2.605 8.025 1.426 9.727-2.392.629-1.412.629-2.678 2.715-2.858 4.655-.386 9.237-1.299 13.799-2.398 2.828-.68 6.94-1.713 8.363.939 2.351 4.384 5.543 4.797 9.463 4.217 4.178-.613 5.595 2.279 4.542 4.97-1.655 4.244.55 10.973-6.767 12.159-1.146.18-1.636 1.605-1.815 2.818-.887 6.003-4.118 11.286-5.356 17.115-1.292 6.056 1.767 15.057 10.998 13.851 2.642-.346 3.629 1.053 4.231 3.145.894 3.078.166 6.082-1.066 8.821-1.337 2.991-1.549 5.423.318 8.427Z" fill="#034DD1"/><path d="m114.959 286.859 2.966 6.887a3.5 3.5 0 0 0 2.891 2.1l7.467.693a.5.5 0 0 1 .284.873l-5.634 4.949a3.5 3.5 0 0 0-1.104 3.399l1.648 7.315a.5.5 0 0 1-.743.54l-6.447-3.828a3.496 3.496 0 0 0-3.574 0l-6.447 3.828a.5.5 0 0 1-.743-.54l1.648-7.315a3.5 3.5 0 0 0-1.104-3.399l-5.634-4.949a.5.5 0 0 1 .284-.873l7.467-.693a3.5 3.5 0 0 0 2.891-2.1l2.966-6.887a.5.5 0 0 1 .918 0Z" fill="#E83636" stroke="#F2994A" stroke-width="3"/><path d="M575.328 518.521c-.622-1.405 1.006-1.881 1.979-2.439 1.265-.724 2.237-1.659 1.686-3.217-.611-1.731-2.003-1.621-3.272-.872-1.735 1.023-3.025.706-3.345-1.255-.434-2.657 1.662-1.404 2.895-1.829 3.666-1.265 7.076-.579 10.555.497 1.523.471 2.981.44 4.057-1.016.5-.675 1.039-1.503 1.961-1.292 1.38.314 2.63.396 3.782.297 2.312-.968 4.852-2.227 7.066-3.584 1.309-1.287 2.51-2.811 3.709-4.406 4.626-6.155 11.837-8.284 18.581-11.048 1.226-.502 2.595-.959 3.521-1.838 2.949-2.799 5.332-5.839 9.736-1.443 1.986 1.984 8.381-2.956 8.207-6.047-.038-.67-.337-1.381-.19-1.995.848-3.555 2.825-6.549-.62-10.567-2.187-2.551 1.719-6.648 6.481-5.9 6.01.944 9.799-1.344 13.526-5.687 5.032-5.865 13.324-3.657 15.726 3.833 1.119 3.489 6.478 6.279 9.847 5.126 3.683-1.26 4.69-3.794 2.809-7.284-1.031-1.911-2.296-3.697-3.288-5.626-1.944-3.778-1.459-10.876 1.708-12.993 6.12-4.094 8.558-9.986 10.079-16.727.585-2.594 1.855-5.027 2.736-7.559 1.207-3.469 3.583-3.701 6.307-2.139 1.426.817 3.056 2.745 4.302 1.55 1.855-1.779 4.749-2.532 5.856-4.331 1.574-2.553 2.837-6.347 2.133-9.059-1.557-5.999 2.715-8.451 5.929-10.906 2.322-1.774 3.986-3.433 4.474-6.09 1.18-6.428 4.444-10.306 11.345-10.191 4.525-1.77 5.028-4.911 3.688-9.268-.939-3.056-2.862-8.18-.831-9.263 4.012-2.139 5.387-5.823 8.138-8.54 3.09-3.054 3.201-6.17 2.519-9.547-.431-2.133-.43-3.72.575-5.674 1.73-3.364-.021-7.438-3.735-8.186-2.307-.464-3.397-1.735-4.618-3.35-2.982-3.946-12.629-4.6-16.123-1.015-2.558 2.626-5.134 5.303-7.234 8.292-2.213 3.153-4.094 5.67-8.675 4.242-2.46-.767-5.19.362-7.665 1.628-2.05 1.048-4.305 1.662-6.535-.084-3.618-2.833-7.896-4.277-12.265-5.442-2.86-.762-4.909-2.127-4.457-5.547.261-1.982-.707-3.209-2.421-3.919-1.91-.791-3.797-1.942-4.584-3.723-4.028-9.114-12.756-7.679-19.732-7.944-8.486-.323-9.643.071-12.28-8.514-1.469-4.78-4.043-8.865-8.506-10.884-5.72-2.588-13.204-.159-17.845-6.146-8.202 1.781-4.01-4.231-3.48-6.523.708-3.061 1.228-6.18 1.999-9.23 1.445-5.72.104-9.151-5.33-10.292-3.533-.742-2.861-1.9-2.024-4.304 1.055-3.036 2.733-6.286-2.045-8.34-2.412-1.037-2.846-7.595-.784-8.757 3.578-2.017 4.607-5.044 3.399-8.463-1.335-3.783-4.844-1.68-7.454-1.796-2.127-.094-4.228.647-4.105-3.086.121-3.657-3.39-5.256-6.141-5.556-5.394-.588-10.768-.431-14.79-5.041-.667-.765-2.417-1.47-3.164-1.12-5.123 2.407-11.153-.432-16.058 2.957-1.065.736-2.517 1.98-3.416 1.713-5.329-1.586-7.087 3.155-7.789 5.853-.981 3.773-2.836 3.707-5.403 3.484-3.978-.346-7.247.592-9.334 4.324-.77 1.376-2.09 2.093-3.531 2.664-1.687.67-2.791 1.826-2.498 3.846v.002c1.402 1.407 3.484 1.978 4.532 3.839 3.617 6.42 2.769 9.1-3.976 11.936-.819.345-2.706.129-2.059 1.239 3.134 5.379-2.531 9.723-1.293 15.231.967 4.303-4.981 6.388-7.126 10.112-2.048 3.555-6.981 6.14-7.559 9.664-.783 4.772-6.376 7.944-3.916 13.604.811 1.869-.338 3.563-2.721 4.562-3.485 1.462-6.858 3.081-10.648 3.55-.751.275-1.502.547-2.25.819-2.126 3.777-6.098 2.353-9.201 3.459-7.678 2.738-14.565.026-21.663-1.592-2.748-.626-4.065-.231-3.069 2.744 1.209 3.612.409 6.487-2.428 8.926-.46.395-.699 1.064-1.01 1.623-1.204 2.165-.23 5.884-4.844 5.545-2.377-.174-4.447 2.327-7.541 1.272-2.658-.907-5.724.691-8.748-.211-1.213-.362-2.651 1.481-3.178 2.818-.652 1.653.564 2.972 2.01 3.531 4.1 1.586 1.68 4.246.799 6.137-1.309 2.81-3.267.575-4.491-.296-3.633-2.585-5.325-2.197-4.914 2.619.115 1.35-.807 2.132-1.78 2.832-.683.492-1.587 1.078-.965 1.967 1.637 2.34 4.965 4.811-.982 5.845-.046.008-.129 1.058.12 1.348 3.932 4.589 6.186 10.888 10.418 14.497 3.014 2.572 5.945 6.904 11.213 7.258 4.666.313 7.284 5.045 8.377 8.49 1.453 4.584 4.098 2.909 5.684 2.02 4.312-2.414 7.675-1.553 10.862 1.694 1.051 1.071 2.105 2.177 2.938 3.417 3.984 5.929 9.782 7.222 16.19 5.967 4.711-.922 5.285 3.583 7.328 5.516 3.199 3.025 5.173 5.529 10.554 5.442 3.408-.055 7.708.576 11.507 1.45 2.45.564 2.637 3.272 4.115 4.726 2.455 2.416-.082 3.24-1.096 4.746-1.756 2.606-2.409 5.074 1.281 6.938 1.64.828 4.131 1.82 3.417 4.331-.657 2.304-2.607 3.962-5.073 4.226-3.266.351-6.423 2.453-9.92-.389-2.018-1.641-3.641 1.091-4.45 2.769-.917 1.901-4.959 2.764-3.205 4.847 1.452 1.723 4.798 2.028 7.746 1.848 5.312-.325 10.984-2.752 15.913.286 3.773 2.327 6.528 4.49 10.99 1.117 1.503-1.136 5.08.891 7.361 1.114 5.614.548 8.635 5.712 13.948 6.369 1.981.245 3.482.139 5.173-.795 2.249-1.24 4.621-1.939 6.792.279.935.954 2.039.888 3.247.693 4.903-.794 9.019 1.563 13.1 3.656 2.245 1.151 2.687 3.334 1.176 5.559-2.002 2.947-3.568 6.038-3.978 9.663-.082.727-.872 2.022-1.184 1.977-5.703-.809-10.05 5.408-16.106 3.033-1.604-.629-3.642-1.335-4.5 1.969-.813 3.127-4.091 1.824-5.857 1.005-3.806-1.764-7.402-2.196-10.937.078-1.963 1.264-3.455-1.051-5.552-.087 1.045 2.666 1.495 5.624 5.542 5.237.65-.062 1.901.691 2.004 1.234.902 4.798 2.865 10.393 1.763 14.316-1.371 4.877.297 9.818-2.701 15.285.088.163.195.311.326.437 1.807-1.023 2.78-1.808 3.187-1.579 5.768 3.256 10.484 1.671 14.966-2.629 1.212-1.163 2.869-.153 4.047.892 1.299 1.152.199 1.685-.442 2.736-1.921 3.15.334 9.39 3.71 11.151l-.002.001h.002c.628-.397 1.257-.793 1.884-1.191h.001c.697-2.66 2.789-4.998 1.398-8.136Z" fill="#034DD1"/><path d="M558.041 359.859a.5.5 0 0 1 .918 0l2.966 6.887a3.5 3.5 0 0 0 2.891 2.1l7.467.693a.5.5 0 0 1 .284.873l-5.634 4.949a3.5 3.5 0 0 0-1.104 3.399l1.648 7.315a.5.5 0 0 1-.743.54l-6.447-3.828a3.496 3.496 0 0 0-3.574 0l-6.447 3.828a.5.5 0 0 1-.743-.54l1.648-7.315a3.5 3.5 0 0 0-1.104-3.399l-5.634-4.949a.5.5 0 0 1 .284-.873l7.467-.693a3.5 3.5 0 0 0 2.891-2.1l2.966-6.887Z" fill="#E83636" stroke="#F2994A" stroke-width="3"/><path d="M1016.08 675.165c4.04-1.433 2.7-6.011 2.78-9.07.1-3.9-.48-7.447 3.39-10.067.72-.486 2.5-3.746-1.33-3.907-.48-.02-1.33.002-1.38-.18-1.47-5.028-7.05-5.247-10.04-8.827-.02 5.63-4.42 7.514-8.03 10.035-.74.517-1.87.66-2.281-.083-2.238-4.043-5.018-1.732-7.678-.796-2.814.99-5.643 2.613-8.048-.803-.499-.709-1.516-1.192-2.163-.446-4.561 5.26-10.492.063-15.571 2.06-1.262.496-3.568-.798-5.001-1.825-3.105-2.223-4.945-9.972-3.495-13.431-5.985-1.076-5.985-1.076-2.291-8.014-3.556.196-5.951-1.538-7.637-4.297-2.401-3.928-6.702-5.024-10.371-6.991-2.778-1.489-5.478-1.498-6.77 2.28-.706 2.063-1.901 2.62-4.253 1.961-4.565-1.278-9.207-2.937-13.75.74-2.569 2.08-3.814-1.903-6.067-2.142-3.599-.383-5.516-3.539-8.242-5.366-.831-.556-1.482-1.478-.748-2.569.625-.929 1.542-1.112 2.641-.852 2.567.607 4.42 2.278 6.202 4.067 1.502 1.508 2.747 1.628 3.989-.388.947-1.539 2.348-2.516.07-4.455-9.107-7.756-18.67-14.058-31.383-12.871-3.312.31-6.094-1.231-7.347-4.227-1.612-3.854-3.997-7.194-5.956-10.801-2.352-4.331-4.425-5.244-9.306-3.892-2.455.68-4.091-1.691-5.308-3.445-3.418-4.927-16.734-7.572-20.923-3.361-5.557 5.585-11.948 5.357-19.041 5.292-7.259-.066-11.846-4.171-17.62-7.234-7.224-3.831-15.164-6.853-23.937-8.158-8.052-1.198-18.653-1.343-22.87-11.759-1.239-3.06-4.431-4.746-5.121-8.41-.55-2.915-3.667-1.588-5.534-1.26-8.442 1.483-15.817-.288-23.366-4.671-6.271-3.641-12.138-8.963-20.272-8.848-1.59.023-2.794.859-3.99.881-4.366.08-8.687 1.952-13.037-1.908-4.878-4.328-9.746-1.716-10.961 4.81-.56 3.01-.767 6.552-5.59 5.855-1.355-.196-2.793 1.076-3.278 2.683-.592 1.961.465 3.154 2.055 4.032a.01.01 0 0 1 .003.001c4.945-.434 9.519 1.513 14.283 2.237 1.087.165 1.813.762 2.369 1.654 7.847 12.585 10.142 25.475 2.246 38.995-2.477 4.24-1.244 7.725 3.344 9.561 2.937 1.175 5.759 2.856 8.665 3.747 4.848 1.487 10.062 5.961 15.135.141.56-.643 1.42-.024 1.641.509 2.703 6.527 8.582 6.923 14.336 7.764 2.377.348 4.763 1.175 3.581 4.568-.599 1.72.218 2.59 1.507 3.748 2.7 2.425 8.141 2.936 6.549 8.719-.09.326.75 1.152 1.305 1.377 3.717 1.509 8.235 1.978 10.977-.29 2.69-2.224 5.088-1.808 7.712-1.974 3.624-.23 5.47.587 3.25 4.895-3.014 5.85 2.238 13.117 8.955 13.451 3.946.195 7.915 1.043 11.743 2.081 2.276.617 3.854.297 6.038-.613 3.69-1.538 6.386-5.847 10.222-5.542 7.056.559 11.862-2.934 16.795-6.902 6.62-5.326 13.654-7.069 21.43-2.339 3.623 2.204 5.633 4.889 4.748 9.485-.755 3.922-1.069 7.959-1.238 11.959-.257 6.132 3.872 11.35 9.254 14.036 3.514 1.753 7.643 3.237 9.101 7.951.838 2.712 2.986 2.225 5.295.905 3.827-2.187 6.51-6.376 11.464-6.67.572-.034 1.485-1.08 1.555-1.73.503-4.707 3.646-5.229 7.524-5.68 4.517-.526 13.739 2.698 15.754 6.602 1.41 2.729 3.239 3.403 5.589 1.833 1.871-1.249 2.426-1.052 3.754.889 2.243 3.276 6.191 3.342 8.908.297 3.39-3.798 7.927-2.989 11.452-2.054 6.455 1.712 12.716 4.885 18.373 8.232 5.525 3.268 13.906 2.888 16.291 10.961.065.219.567.305.863.455 7.118 3.587 14.304 7.048 21.322 10.822 3.098 1.667 5.624 2.264 7.597-1.289.814-1.464 2.26-2.029 3.35-1.295 4.603 3.099 7.831-.026 11.747-1.77 4.06-1.814 5.46-5.452 7.84-8.47-.02-4.773.82-8.676 6.23-10.599Z" fill="#1E6AF2"/><path d="M866.041 614.859a.5.5 0 0 1 .918 0l2.966 6.887a3.5 3.5 0 0 0 2.891 2.1l7.467.693a.5.5 0 0 1 .284.873l-5.634 4.949a3.5 3.5 0 0 0-1.104 3.399l1.648 7.315a.5.5 0 0 1-.743.54l-6.447-3.828a3.496 3.496 0 0 0-3.574 0l-6.447 3.828a.5.5 0 0 1-.743-.54l1.648-7.315a3.5 3.5 0 0 0-1.104-3.399l-5.634-4.949a.5.5 0 0 1 .284-.873l7.467-.693a3.5 3.5 0 0 0 2.891-2.1l2.966-6.887Z" fill="#E83636" stroke="#F2994A" stroke-width="3"/></svg>